{
  "asset": {
    "version": "2.0",
    "generator": "THREE.GLTFExporter"
  },
  "scenes": [
    {
      "name": "Scene",
      "nodes": [
        8
      ]
    }
  ],
  "scene": 0,
  "nodes": [
    {
      "matrix": [
        0.7570506065780854,
        0.6533562909445454,
        -1.3478404113774502e-8,
        0,
        -0.15923970905545426,
        0.18451270000643433,
        0.9698441952707604,
        0,
        0.6336537865215962,
        -0.7342211047292397,
        0.24372570883423966,
        0,
        201.2512,
        4.091036,
        73.46989,
        1
      ],
      "name": "skp_camera_Last_Saved_SketchUp_View",
      "camera": 0
    },
    {
      "matrix": [
        0.849872102911067,
        0.5269888946619541,
        -8.412949084233897e-9,
        0,
        -0.13872360533804634,
        0.22371881529076135,
        0.9647308938692368,
        0,
        0.5084024915870502,
        -0.8198979061307629,
        0.26323819083197253,
        0,
        281.4383,
        -254.4204,
        173.124,
        1
      ],
      "name": "skp_camera_Home",
      "camera": 1
    },
    {
      "mesh": 0
    },
    {
      "mesh": 1
    },
    {
      "mesh": 2
    },
    {
      "mesh": 3
    },
    {
      "matrix": [
        1,
        0,
        0,
        0,
        0,
        1,
        0,
        0,
        0,
        0,
        1,
        0,
        26.15141,
        76.97835,
        0,
        1
      ],
      "name": "group_0",
      "children": [
        2,
        3,
        4,
        5
      ]
    },
    {
      "name": "SketchUp",
      "children": [
        0,
        1,
        6
      ]
    },
    {
      "matrix": [
        0.0254,
        0,
        0,
        0,
        0,
        5.639932965095795e-18,
        -0.0254,
        0,
        0,
        0.0254,
        5.639932965095795e-18,
        0,
        0,
        0,
        0,
        1
      ],
      "name": "model.dae",
      "children": [
        7
      ]
    }
  ],
  "cameras": [
    {
      "type": "perspective",
      "perspective": {
        "aspectRatio": 0,
        "yfov": 0.6108652381980153,
        "zfar": 1000,
        "znear": 1
      },
      "name": "PerspectiveCamera"
    },
    {
      "type": "perspective",
      "perspective": {
        "aspectRatio": 0,
        "yfov": 0.6108652381980153,
        "zfar": 1000,
        "znear": 1
      },
      "name": "PerspectiveCamera"
    }
  ],
  "bufferViews": [
    {
      "buffer": 0,
      "byteOffset": 0,
      "byteLength": 416592,
      "target": 34962,
      "byteStride": 12
    },
    {
      "buffer": 0,
      "byteOffset": 416592,
      "byteLength": 416592,
      "target": 34962,
      "byteStride": 12
    },
    {
      "buffer": 0,
      "byteOffset": 833184,
      "byteLength": 208392,
      "target": 34962,
      "byteStride": 12
    },
    {
      "buffer": 0,
      "byteOffset": 1041576,
      "byteLength": 208392,
      "target": 34962,
      "byteStride": 12
    },
    {
      "buffer": 0,
      "byteOffset": 1249968,
      "byteLength": 34684,
      "target": 34963
    },
    {
      "buffer": 0,
      "byteOffset": 1284652,
      "byteLength": 8,
      "target": 34963
    },
    {
      "buffer": 0,
      "byteOffset": 1284660,
      "byteLength": 28,
      "target": 34963
    },
    {
      "buffer": 0,
      "byteOffset": 1284688,
      "byteLength": 8,
      "target": 34963
    },
    {
      "buffer": 0,
      "byteOffset": 1284696,
      "byteLength": 4,
      "target": 34963
    },
    {
      "buffer": 0,
      "byteOffset": 1284700,
      "byteLength": 1296,
      "target": 34962,
      "byteStride": 12
    },
    {
      "buffer": 0,
      "byteOffset": 1285996,
      "byteLength": 1296,
      "target": 34962,
      "byteStride": 12
    },
    {
      "buffer": 0,
      "byteOffset": 1287292,
      "byteLength": 108,
      "target": 34963
    },
    {
      "buffer": 0,
      "byteOffset": 1287400,
      "byteLength": 108,
      "target": 34963
    },
    {
      "buffer": 0,
      "byteOffset": 1287508,
      "byteLength": 744,
      "target": 34962,
      "byteStride": 12
    },
    {
      "buffer": 0,
      "byteOffset": 1288252,
      "byteLength": 744,
      "target": 34962,
      "byteStride": 12
    }
  ],
  "buffers": [
    {
      "byteLength": 1288996,
      "uri": "data:application/octet-stream;base64,"
    }
  ],
  "accessors": [
    {
      "bufferView": 0,
      "componentType": 5126,
      "count": 34716,
      "max": [
        125.32710266113281,
        40.83372116088867,
        76.76107025146484
      ],
      "min": [
        0,
        0,
        0
      ],
      "type": "VEC3"
    },
    {
      "bufferView": 1,
      "componentType": 5126,
      "count": 34716,
      "max": [
        0.9997298121452332,
        0.9996849894523621,
        0.9999127984046936
      ],
      "min": [
        -0.9997298121452332,
        -0.9996849894523621,
        -0.9999127984046936
      ],
      "type": "VEC3"
    },
    {
      "bufferView": 2,
      "componentType": 5126,
      "count": 17366,
      "max": [
        125.32710266113281,
        40.83372116088867,
        76.76107025146484
      ],
      "min": [
        0,
        0,
        0
      ],
      "type": "VEC3"
    },
    {
      "bufferView": 3,
      "componentType": 5126,
      "count": 17366,
      "max": [
        1,
        0,
        0
      ],
      "min": [
        1,
        0,
        0
      ],
      "type": "VEC3"
    },
    {
      "bufferView": 4,
      "componentType": 5123,
      "count": 17342,
      "max": [
        17341
      ],
      "min": [
        0
      ],
      "type": "SCALAR"
    },
    {
      "bufferView": 5,
      "componentType": 5123,
      "count": 4,
      "max": [
        17345
      ],
      "min": [
        17342
      ],
      "type": "SCALAR"
    },
    {
      "bufferView": 6,
      "componentType": 5123,
      "count": 14,
      "max": [
        17359
      ],
      "min": [
        17346
      ],
      "type": "SCALAR"
    },
    {
      "bufferView": 7,
      "componentType": 5123,
      "count": 4,
      "max": [
        17363
      ],
      "min": [
        17360
      ],
      "type": "SCALAR"
    },
    {
      "bufferView": 8,
      "componentType": 5123,
      "count": 2,
      "max": [
        17365
      ],
      "min": [
        17364
      ],
      "type": "SCALAR"
    },
    {
      "bufferView": 9,
      "componentType": 5126,
      "count": 108,
      "max": [
        113.372802734375,
        27.953540802001953,
        67.83661651611328
      ],
      "min": [
        111.24700164794922,
        26.257549285888672,
        65.96218872070312
      ],
      "type": "VEC3"
    },
    {
      "bufferView": 10,
      "componentType": 5126,
      "count": 108,
      "max": [
        0.9502813816070557,
        0.9950906038284302,
        0.5980674028396606
      ],
      "min": [
        -0.9502813816070557,
        -0.9950906038284302,
        -0.5980674028396606
      ],
      "type": "VEC3"
    },
    {
      "bufferView": 11,
      "componentType": 5123,
      "count": 54,
      "max": [
        53
      ],
      "min": [
        0
      ],
      "type": "SCALAR"
    },
    {
      "bufferView": 12,
      "componentType": 5123,
      "count": 54,
      "max": [
        107
      ],
      "min": [
        54
      ],
      "type": "SCALAR"
    },
    {
      "bufferView": 13,
      "componentType": 5126,
      "count": 62,
      "max": [
        113.372802734375,
        27.953540802001953,
        67.83661651611328
      ],
      "min": [
        111.24700164794922,
        26.257549285888672,
        65.96218872070312
      ],
      "type": "VEC3"
    },
    {
      "bufferView": 14,
      "componentType": 5126,
      "count": 62,
      "max": [
        1,
        0,
        0
      ],
      "min": [
        1,
        0,
        0
      ],
      "type": "VEC3"
    }
  ],
  "materials": [
    {
      "pbrMetallicRoughness": {
        "metallicFactor": 0.5,
        "roughnessFactor": 0.5
      },
      "name": "__White_"
    },
    {
      "pbrMetallicRoughness": {
        "metallicFactor": 0.5,
        "roughnessFactor": 0.5
      }
    },
    {
      "pbrMetallicRoughness": {
        "metallicFactor": 0,
        "roughnessFactor": 0.9
      },
      "name": "edge_color220220220255",
      "extensions": {
        "KHR_materials_unlit": {}
      }
    },
    {
      "pbrMetallicRoughness": {
        "metallicFactor": 0,
        "roughnessFactor": 0.9
      },
      "name": "edge_color245245245255",
      "extensions": {
        "KHR_materials_unlit": {}
      }
    },
    {
      "pbrMetallicRoughness": {
        "metallicFactor": 0,
        "roughnessFactor": 0.9
      },
      "name": "edge_color818181255",
      "extensions": {
        "KHR_materials_unlit": {}
      }
    },
    {
      "pbrMetallicRoughness": {
        "metallicFactor": 0,
        "roughnessFactor": 0.9
      },
      "name": "edge_color000255",
      "extensions": {
        "KHR_materials_unlit": {}
      }
    },
    {
      "pbrMetallicRoughness": {
        "baseColorFactor": [
          0,
          0,
          0,
          1
        ],
        "metallicFactor": 0.5,
        "roughnessFactor": 0.5
      },
      "name": "__Black_"
    },
    {
      "pbrMetallicRoughness": {
        "metallicFactor": 0,
        "roughnessFactor": 0.9
      },
      "name": "edge_color255255255255",
      "extensions": {
        "KHR_materials_unlit": {}
      }
    }
  ],
  "meshes": [
    {
      "primitives": [
        {
          "mode": 4,
          "attributes": {
            "POSITION": 0,
            "NORMAL": 1
          },
          "material": 0
        }
      ]
    },
    {
      "primitives": [
        {
          "mode": 1,
          "attributes": {
            "POSITION": 2,
            "NORMAL": 3
          },
          "indices": 4,
          "material": 1
        },
        {
          "mode": 1,
          "attributes": {
            "POSITION": 2,
            "NORMAL": 3
          },
          "indices": 5,
          "material": 2
        },
        {
          "mode": 1,
          "attributes": {
            "POSITION": 2,
            "NORMAL": 3
          },
          "indices": 6,
          "material": 3
        },
        {
          "mode": 1,
          "attributes": {
            "POSITION": 2,
            "NORMAL": 3
          },
          "indices": 7,
          "material": 4
        },
        {
          "mode": 1,
          "attributes": {
            "POSITION": 2,
            "NORMAL": 3
          },
          "indices": 8,
          "material": 5
        }
      ]
    },
    {
      "primitives": [
        {
          "mode": 4,
          "attributes": {
            "POSITION": 9,
            "NORMAL": 10
          },
          "indices": 11,
          "material": 6
        },
        {
          "mode": 4,
          "attributes": {
            "POSITION": 9,
            "NORMAL": 10
          },
          "indices": 12,
          "material": 0
        }
      ]
    },
    {
      "primitives": [
        {
          "mode": 1,
          "attributes": {
            "POSITION": 13,
            "NORMAL": 14
          },
          "material": 7
        }
      ]
    }
  ],
  "extensionsUsed": [
    "KHR_materials_unlit"
  ]
}